<svg width="24" height="24" viewBox="0 0 24 24" fill="none" xmlns="http://www.w3.org/2000/svg">
  <path d="M21.5 2.5L13.5 8.5L15 4L21.5 2.5Z" fill="#E2761B" stroke="#E2761B" stroke-width="0.5" stroke-linecap="round" stroke-linejoin="round"/>
  <path d="M2.5 2.5L10.3 8.6L9 4L2.5 2.5Z" fill="#E4761B" stroke="#E4761B" stroke-width="0.5" stroke-linecap="round" stroke-linejoin="round"/>
  <path d="M18.5 16.5L16.5 19.5L21 20.5L22.5 16.5L18.5 16.5Z" fill="#E4761B" stroke="#E4761B" stroke-width="0.5" stroke-linecap="round" stroke-linejoin="round"/>
  <path d="M1.5 16.5L3 20.5L7.5 19.5L5.5 16.5L1.5 16.5Z" fill="#E4761B" stroke="#E4761B" stroke-width="0.5" stroke-linecap="round" stroke-linejoin="round"/>
  <path d="M7 10.5L5.5 13L10.5 13.2L10.2 8L7 10.5Z" fill="#E4761B" stroke="#E4761B" stroke-width="0.5" stroke-linecap="round" stroke-linejoin="round"/>
  <path d="M17 10.5L13.8 8L13.5 13.2L18.5 13L17 10.5Z" fill="#E4761B" stroke="#E4761B" stroke-width="0.5" stroke-linecap="round" stroke-linejoin="round"/>
  <path d="M7.5 19.5L11 18.5L8 16.5L7.5 19.5Z" fill="#D7C1B3" stroke="#D7C1B3" stroke-width="0.5" stroke-linecap="round" stroke-linejoin="round"/>
  <path d="M13 18.5L16.5 19.5L16 16.5L13 18.5Z" fill="#D7C1B3" stroke="#D7C1B3" stroke-width="0.5" stroke-linecap="round" stroke-linejoin="round"/>
  <path d="M18.5 13L13.5 13.2L14 15.5L14.2 16L18.5 16.5L18.5 13Z" fill="#233447" stroke="#233447" stroke-width="0.5" stroke-linecap="round" stroke-linejoin="round"/>
  <path d="M5.5 13L5.5 16.5L9.8 16L10 15.5L10.5 13.2L5.5 13Z" fill="#233447" stroke="#233447" stroke-width="0.5" stroke-linecap="round" stroke-linejoin="round"/>
  <path d="M10.5 13.2L10 15.5L10.5 17L10.7 18.2L11 18.5L14 18.5L14.3 18.2L14.5 17L15 15.5L14.5 13.2L13.5 13.2L13.2 15L12 15.5L11.8 15L10.8 15L10.5 13.2L10.5 13.2Z" fill="#CD6116" stroke="#CD6116" stroke-width="0.5" stroke-linecap="round" stroke-linejoin="round"/>
  <path d="M10.3 8L13.5 8.2L12.5 5L10.3 8Z" fill="#E2761B" stroke="#E2761B" stroke-width="0.5" stroke-linecap="round" stroke-linejoin="round"/>
  <path d="M5.5 13L7 10.5L10.3 8L9 4L2.5 2.5L5.5 13Z" fill="#F5841F" stroke="#F5841F" stroke-width="0.5" stroke-linecap="round" stroke-linejoin="round"/>
  <path d="M2.5 2.5L9 4L7.5 2.5L2.5 2.5Z" fill="#763D16" stroke="#763D16" stroke-width="0.5" stroke-linecap="round" stroke-linejoin="round"/>
  <path d="M18.5 13L21.5 2.5L15 4L13.5 8.2L17 10.5L18.5 13Z" fill="#F5841F" stroke="#F5841F" stroke-width="0.5" stroke-linecap="round" stroke-linejoin="round"/>
  <path d="M21.5 2.5L16.5 2.5L15 4L21.5 2.5Z" fill="#763D16" stroke="#763D16" stroke-width="0.5" stroke-linecap="round" stroke-linejoin="round"/>
  <path d="M14.5 13.2L15 15.5L15.5 17L16.5 19.5L13 18.5L10.5 18.5L9.5 19.5L10 17L10.5 15.5L11 13.2L10.5 13.2L7 10.5L8 16.5L10 16L12 16.5L14 16.5L16 16.5L17 10.5L14.5 13.2Z" fill="#F5841F" stroke="#F5841F" stroke-width="0.5" stroke-linecap="round" stroke-linejoin="round"/>
</svg>
