<svg width="24" height="24" viewBox="0 0 24 24" fill="none" xmlns="http://www.w3.org/2000/svg">
  <path d="M6.5 9.5C10.5 5.5 15.5 5.5 19.5 9.5L20.5 8.5C15.9 3.9 9.1 3.9 4.5 8.5L6.5 9.5ZM3.5 12.5L4.5 11.5C7.5 8.5 11.5 8.5 14.5 11.5L15.5 12.5C13.5 10.5 10.5 10.5 8.5 12.5L3.5 12.5ZM1.5 15.5L2.5 14.5C6.5 10.5 12.5 10.5 16.5 14.5L17.5 15.5C12.9 10.9 5.1 10.9 1.5 15.5Z" fill="#3B99FC"/>
  <path d="M22.5 15.5L21.5 14.5C17.5 10.5 11.5 10.5 7.5 14.5L6.5 15.5C11.1 10.9 18.9 10.9 22.5 15.5Z" fill="#3B99FC"/>
</svg>
